<?xml version="1.0" encoding="utf-8"?>
<!-- Generator: Adobe Illustrator 15.1.0, SVG Export Plug-In . SVG Version: 6.00 Build 0)  -->
<!DOCTYPE svg PUBLIC "-//W3C//DTD SVG 1.1//EN" "http://www.w3.org/Graphics/SVG/1.1/DTD/svg11.dtd">
<svg version="1.1" id="Layer_1" xmlns="http://www.w3.org/2000/svg" xmlns:xlink="http://www.w3.org/1999/xlink" x="0px" y="0px"
	 width="1920px" height="1417.322px" viewBox="0 -630.392 1920 1417.322" enable-background="new 0 -630.392 1920 1417.322"
	 xml:space="preserve">
<circle opacity="0.5" fill="#D0D5F2" cx="1313.226" cy="-90.762" r="126.649"/>
<circle opacity="0.5" fill="#D0D5F2" cx="1676.565" cy="-359.754" r="67.813"/>
<circle opacity="0.5" fill="#D0D5F2" cx="1617.272" cy="542.979" r="204.651"/>
<circle opacity="0.5" fill="#D0D5F2" cx="1112.203" cy="291.808" r="49.521"/>
<circle opacity="0.5" fill="#D0D5F2" cx="1249.292" cy="-426.789" r="40.698"/>
<circle opacity="0.5" fill="#D0D5F2" cx="969.174" cy="624.374" r="22.093"/>
<circle opacity="0.5" fill="#D0D5F2" cx="1671.5" cy="147.63" r="24.419"/>
<line opacity="0.5" fill="none" stroke="#D0D5F2" stroke-width="10" stroke-miterlimit="10" x1="1624.674" y1="-316.683" x2="1410.852" y2="-170.717"/>
<line opacity="0.5" fill="none" stroke="#D0D5F2" stroke-width="10" stroke-miterlimit="10" x1="1154.058" y1="317.397" x2="1423.257" y2="477.694"/>
<line opacity="0.5" fill="none" stroke="#D0D5F2" stroke-width="10" stroke-miterlimit="10" x1="1381.684" y1="15.807" x2="1539.305" y2="353.715"/>
<circle opacity="0.5" fill="#D0D5F2" cx="947.081" cy="15.807" r="28.644"/>
<path fill-rule="evenodd" clip-rule="evenodd" fill="#FFFFFF" d="M1253.06-121.889c9.095-17.758,24.226-27.648,38.248-32.776
	c14.686-5.369,32.723-5.704,51.085,2.827c18.306,8.504,28.682,23.227,34.471,37.448c5.926,14.555,5.728,31.679-1.55,50.619
	c-0.674,1.451-1.349,2.901-2.022,4.352c-9.341,17.679-23.16,27.26-37.293,32.428c-14.209,5.194-31.015,6.222-49.763-1.683
	c-1.379-0.64-2.758-1.281-4.137-1.921c-18.023-9.311-26.093-22.261-32.278-35.901c-0.256-1.111-0.644-2.173-1.165-3.187
	c-4.275-14.158-4.938-29.636,2.482-48.069C1251.778-119.13,1252.419-120.509,1253.06-121.889z M1294.803-137.693
	c-9.649,4.439-20.283,11.166-26.78,24.608c-6.385,13.211-6.239,26.517-3.125,36.92c0.41,1.537,0.954,3.023,1.631,4.463
	c4.578,9.831,10.493,19.171,23.722,25.84c0.067,0.468,1.774,1.261,2.178,1.011c13.728,5.918,25.112,5.429,35.613,2.518
	c1.323-0.333,2.598-0.799,3.826-1.398c11.31-5.196,23.368-13.431,28.957-31.005c-5.245,6.41-11.298,10.612-17.869,13.398
	c-1.536,0.411-3.023,0.955-4.462,1.631c-7.979,2.231-16.438,3.147-26.884-1.374c-0.87-0.404-1.741-0.809-2.611-1.213
	c-9.318-4.785-13.68-11.381-17.17-18.296c-0.372-1.431-0.877-2.812-1.515-4.146c-1.855-6.669-2.306-15.961,2.407-24.55
	c3.728-6.793,9.306-10.92,14.649-13.307c1.218-0.294,2.388-0.722,3.507-1.281c5.059-1.321,10.319-2.088,16.878,0.695
	c0.943,0.438,1.887,0.876,2.831,1.315c9.942,5.819,15.532,16.423,11.834,26.933c-3.476,9.873-11.554,14.01-19.16,13.329
	c-8.37-0.75-13.619-7.395-14.131-13.445c-0.688-8.159,6.916-14.827,13.593-12.739c3.396,1.062,5.449,3.554,5.635,5.528
	c-3.503-6.288-12.313-5.201-15.105,1.187c-2.391,5.466,2.046,14.353,10.391,14.088c5.169-0.163,10.969-4.715,12.029-11.083
	c1.387-8.311-6.194-17.542-16.283-17.357c-12.471,0.23-22.11,14.719-18.034,26.291c0.255,1.111,0.645,2.173,1.166,3.188
	c2.318,4.572,5.405,8.865,11.301,12.129c0.422,0.636,2.509,1.605,3.265,1.517c16.383,6.03,33.48-4.587,39.46-20.569
	c6.641-17.747-2.398-32.614-18.922-41.869c-1.141-0.97-3.964-2.282-5.441-2.528c-12.922-5.03-23.828-4.55-33.872-1.71
	C1297.092-138.68,1295.923-138.253,1294.803-137.693z"/>
<path fill-rule="evenodd" clip-rule="evenodd" fill="#FFFFFF" d="M1669.117,473.183c20.619,15.186,30.025,36.394,33.629,55.215
	c3.772,19.712,0.476,42.629-14.119,64.13c-14.55,21.436-35.341,31.543-54.551,35.942c-19.661,4.503-41.313,0.72-63.805-12.407
	c-1.698-1.152-3.397-2.307-5.096-3.459c-20.469-15.48-29.754-34.964-33.385-53.933c-3.648-19.071-1.484-40.573,12.398-62.693
	c1.096-1.613,2.191-3.228,3.287-4.843c15.514-20.91,33.585-28.461,52.139-33.483c1.46-0.094,2.886-0.366,4.277-0.818
	c18.817-2.495,38.561-0.142,60.382,13.063C1665.888,470.99,1667.502,472.087,1669.117,473.183z M1680.525,529.323
	c-3.632-13.14-9.96-27.999-25.648-39.002c-15.418-10.813-32.304-13.374-46.125-11.575c-2.031,0.203-4.026,0.584-5.99,1.145
	c-13.397,3.771-26.451,9.338-37.628,24.72c-0.606-0.012-1.964,1.988-1.73,2.55c-10.329,16.169-12.059,30.691-10.537,44.596
	c0.148,1.745,0.477,3.456,0.981,5.134c4.25,15.4,12.193,32.375,33.305,43.08c-7.039-7.968-11.113-16.501-13.288-25.399
	c-0.203-2.031-0.585-4.027-1.146-5.989c-1.18-10.568-0.595-21.473,7.288-33.773c0.69-1.018,1.384-2.038,2.075-3.058
	c7.982-10.817,17.239-14.98,26.719-17.977c1.891-0.176,3.742-0.529,5.563-1.063c8.831-0.975,20.695,0.372,30.604,8.114
	c7.836,6.123,11.913,14.041,13.834,21.303c0.121,1.604,0.422,3.173,0.899,4.707c0.631,6.681,0.517,13.503-4.362,21.237
	c-0.75,1.104-1.499,2.209-2.25,3.314c-9.423,11.395-24.009,16.288-36.561,9.436c-11.789-6.439-15.362-17.527-12.93-27.022
	c2.676-10.448,12.177-15.727,19.946-15.127c10.478,0.812,17.355,11.819,13.335,19.848c-2.047,4.083-5.627,6.171-8.167,5.997
	c8.688-3.14,9.13-14.523,1.613-19.38c-6.432-4.155-18.604-0.37-19.991,10.257c-0.86,6.581,3.711,14.867,11.559,17.524
	c10.241,3.471,23.499-4.228,25.346-17.046c2.281-15.846-14.083-31.047-29.583-28.271c-1.46,0.094-2.886,0.369-4.278,0.82
	c-6.271,1.994-12.346,5.018-17.698,11.813c-0.893,0.403-2.55,2.846-2.595,3.822c-11.018,19.51-1.096,43.359,17.917,54.232
	c21.111,12.072,41.811,3.689,56.943-15.334c1.465-1.244,3.708-4.55,4.324-6.371c9.038-15.331,10.681-29.246,9.155-42.556
	C1681.303,532.427,1681.005,530.857,1680.525,529.323z"/>
<path fill-rule="evenodd" clip-rule="evenodd" fill="#FFFFFF" d="M1113.152,269.481c6.577,0.253,11.639,3.405,15.122,6.888
	c3.647,3.647,6.254,8.997,6.254,15.676c0,6.659-2.963,11.81-6.413,15.518c-3.53,3.796-8.681,6.116-15.358,6.571
	c-0.528,0-1.056,0-1.583,0c-6.588-0.338-11.375-3.141-14.885-6.65c-3.528-3.528-6.172-8.414-6.412-15.121c0-0.502,0-1.003,0-1.505
	c0.28-6.686,3.033-10.9,6.254-14.646c0.297-0.23,0.561-0.494,0.792-0.791c3.642-3.247,8.18-5.597,14.726-5.938
	C1112.149,269.481,1112.651,269.481,1113.152,269.481z M1123.683,279.773c-2.669-2.27-6.159-4.517-11.084-4.592
	c-4.84-0.074-8.801,1.819-11.479,4.196c-0.403,0.337-0.772,0.706-1.109,1.108c-2.305,2.736-4.276,5.804-4.434,10.688
	c-0.131,0.085-0.131,0.706,0,0.792c0.138,4.929,1.866,8.267,4.196,11.004c0.284,0.35,0.601,0.666,0.95,0.95
	c3.127,2.662,7.266,5.125,13.301,4.354c-2.647-0.679-4.745-1.905-6.492-3.483c-0.336-0.403-0.706-0.772-1.108-1.108
	c-1.776-2.077-3.226-4.48-3.325-8.234c0-0.316,0-0.633,0-0.949c0.137-3.453,1.504-5.675,3.088-7.68
	c0.376-0.311,0.719-0.653,1.029-1.029c1.737-1.482,4.455-2.908,7.68-2.692c2.55,0.172,4.56,1.267,6.017,2.533
	c0.257,0.324,0.548,0.614,0.871,0.871c1.098,1.33,2.059,2.797,2.138,5.146c0,0.343,0,0.687,0,1.029
	c-0.359,3.783-2.755,6.93-6.413,7.284c-3.437,0.332-5.797-1.51-6.65-3.88c-0.939-2.608,0.319-5.103,2.059-6.097
	c2.345-1.339,5.396,0.009,5.7,2.296c0.154,1.164-0.306,2.125-0.871,2.454c1.395-1.922-0.155-4.406-2.454-4.354
	c-1.968,0.044-4.01,2.606-2.771,5.066c0.767,1.523,2.935,2.626,4.987,2.059c2.679-0.74,4.387-4.291,2.93-7.283
	c-1.802-3.699-7.477-4.569-10.372-1.742c-0.297,0.23-0.561,0.495-0.791,0.792c-1.046,1.329-1.901,2.85-2.059,5.066
	c-0.132,0.215-0.132,0.974,0,1.188c0.473,5.739,6.025,9.379,11.638,8.947c6.232-0.48,9.424-5.251,9.896-11.48
	c0.132-0.476,0.132-1.503,0-1.979c-0.291-4.564-1.95-7.761-4.196-10.371C1124.296,280.321,1124.006,280.031,1123.683,279.773z"/>
<path fill-rule="evenodd" clip-rule="evenodd" fill="#FFFFFF" d="M1702.826-386.08c7.786,7.704,10.452,17.261,10.812,25.45
	c0.375,8.574-2.44,18.068-9.947,26.262c-7.485,8.17-16.91,11.159-25.312,11.83c-8.598,0.689-17.525-2.253-26.23-9.202
	c-0.648-0.594-1.295-1.186-1.941-1.778c-7.703-7.821-10.426-16.64-10.786-24.891c-0.363-8.295,1.886-17.261,9.13-25.76
	c0.564-0.616,1.127-1.231,1.691-1.846c7.859-7.888,15.975-9.965,24.137-10.94c0.623,0.051,1.244,0.024,1.861-0.08
	c8.117,0.109,16.325,2.327,24.741,9.266C1701.597-387.207,1702.213-386.642,1702.826-386.08z M1704.178-361.615
	c-0.724-5.785-2.48-12.465-8.438-18.093c-5.855-5.533-12.843-7.661-18.801-7.755c-0.874-0.041-1.741-0.002-2.607,0.113
	c-5.904,0.766-11.771,2.313-17.455,8.129c-0.256-0.042-0.953,0.72-0.89,0.972c-5.37,6.203-7.003,12.24-7.222,18.218
	c-0.043,0.75-0.011,1.493,0.099,2.234c0.844,6.781,3.153,14.455,11.425,20.294c-2.486-3.81-3.681-7.672-4.05-11.572
	c0.04-0.873,0.001-1.742-0.115-2.606c0.156-4.545,1.079-9.124,5.177-13.841c0.355-0.388,0.711-0.776,1.066-1.165
	c4.05-4.083,8.226-5.271,12.422-5.951c0.81,0.042,1.615,0.006,2.42-0.106c3.798,0.134,8.734,1.439,12.449,5.33
	c2.935,3.077,4.169,6.679,4.534,9.872c-0.05,0.685-0.02,1.369,0.09,2.047c-0.149,2.866-0.618,5.746-3.163,8.717
	c-0.386,0.421-0.771,0.842-1.157,1.263c-4.693,4.238-11.169,5.405-16.057,1.728c-4.589-3.454-5.414-8.368-3.798-12.236
	c1.78-4.256,6.127-5.901,9.379-5.166c4.383,0.993,6.611,6.077,4.413,9.225c-1.119,1.601-2.765,2.263-3.828,2.03
	c3.872-0.789,4.763-5.58,1.884-8.099c-2.464-2.158-7.849-1.309-9.095,3.102c-0.772,2.73,0.648,6.52,3.805,8.132
	c4.119,2.102,10.207-0.333,11.781-5.643c1.947-6.563-4.035-14.01-10.766-13.796c-0.624-0.051-1.245-0.023-1.861,0.083
	c-2.777,0.455-5.536,1.358-8.221,3.901c-0.403,0.116-1.256,1.047-1.335,1.458c-5.871,7.573-3.151,18.279,4.221,24.059
	c8.187,6.417,17.465,4.151,25.047-2.961c0.697-0.434,1.852-1.694,2.225-2.428c4.773-5.928,6.332-11.713,6.51-17.441
	C1704.313-360.254,1704.284-360.936,1704.178-361.615z"/>
</svg>
