<?xml version="1.0" encoding="utf-8"?>
<!-- Generator: Adobe Illustrator 15.1.0, SVG Export Plug-In . SVG Version: 6.00 Build 0)  -->
<!DOCTYPE svg PUBLIC "-//W3C//DTD SVG 1.1//EN" "http://www.w3.org/Graphics/SVG/1.1/DTD/svg11.dtd">
<svg version="1.1" id="Layer_1" xmlns="http://www.w3.org/2000/svg" xmlns:xlink="http://www.w3.org/1999/xlink" x="0px" y="0px"
	 width="1920px" height="156.539px" viewBox="0 0 1920 156.539" enable-background="new 0 0 1920 156.539" xml:space="preserve">
<path fill="#D0D5F2" d="M1920,156.54H0V0.002c0.244,0.09,25.574,9.5,70.981,23.206c26.791,8.084,55.307,16.087,84.754,23.787
	c36.812,9.625,75.189,18.8,114.066,27.268C368.766,95.822,471.542,113,575.277,125.322c29.981,3.563,60.447,6.759,90.552,9.5
	c31.689,2.888,63.843,5.354,95.563,7.326c33.268,2.07,66.993,3.658,100.243,4.717c34.759,1.109,69.949,1.671,104.592,1.673h0.102
	c330.231,0,651.094-49.976,953.67-148.538v156.538L1920,156.54z"/>
</svg>
