<?xml version="1.0" encoding="utf-8"?>
<!-- Generator: Adobe Illustrator 15.1.0, SVG Export Plug-In . SVG Version: 6.00 Build 0)  -->
<!DOCTYPE svg PUBLIC "-//W3C//DTD SVG 1.1//EN" "http://www.w3.org/Graphics/SVG/1.1/DTD/svg11.dtd">
<svg version="1.1" id="Layer_1" xmlns="http://www.w3.org/2000/svg" xmlns:xlink="http://www.w3.org/1999/xlink" x="0px" y="0px"
	 width="1920px" height="156.539px" viewBox="0 0 1920 156.539" enable-background="new 0 0 1920 156.539" xml:space="preserve">
<path fill="#D0D5F2" d="M1919.998-0.998V155.54C1617.422,56.978,1296.56,7.002,966.328,7.002h-0.102
	c-34.643,0.002-69.833,0.563-104.592,1.673c-33.25,1.059-66.976,2.646-100.243,4.717c-31.72,1.973-63.873,4.438-95.563,7.326
	c-30.104,2.741-60.57,5.938-90.552,9.5c-103.735,12.322-206.512,29.5-305.477,51.06c-38.877,8.468-77.254,17.643-114.066,27.268
	c-29.447,7.7-57.963,15.703-84.754,23.787C25.574,146.038,0.244,155.448,0,155.538V-1h1920L1919.998-0.998z"/>
</svg>
