<svg xmlns="http://www.w3.org/2000/svg" width="1920" height="156.538" viewBox="0 0 1920 156.538"><defs><style>.a{fill:#0a1024;}</style></defs><path class="a" d="M1920,277.093H0V120.556c.244.09,25.574,9.5,70.981,23.206,26.791,8.084,55.307,16.087,84.754,23.787,36.812,9.625,75.189,18.8,114.066,27.268,98.965,21.559,201.741,38.738,305.476,51.059,29.983,3.561,60.449,6.758,90.552,9.5,31.691,2.888,63.843,5.354,95.563,7.327,33.266,2.07,66.993,3.657,100.243,4.717,34.759,1.108,69.949,1.67,104.592,1.671h.1c330.233,0,651.094-49.975,953.67-148.537V277.092Z" transform="translate(0 -120.555)"/></svg>