<?xml version="1.0" encoding="utf-8"?>
<!-- Generator: Adobe Illustrator 15.1.0, SVG Export Plug-In . SVG Version: 6.00 Build 0)  -->
<!DOCTYPE svg PUBLIC "-//W3C//DTD SVG 1.1//EN" "http://www.w3.org/Graphics/SVG/1.1/DTD/svg11.dtd">
<svg version="1.1" id="Layer_1" xmlns="http://www.w3.org/2000/svg" xmlns:xlink="http://www.w3.org/1999/xlink" x="0px" y="0px"
	 width="1943.102px" height="340.564px" viewBox="0 0 1943.102 340.564" enable-background="new 0 0 1943.102 340.564"
	 xml:space="preserve">
<path fill="#E1E4F6" d="M1915.57,17.162c0,0,0.481-100.708,0.481,63.458c-298.836,190.163-454.672,235.996-972.84,36.688
	C660.029-18.897,66.399,262.185,0.942,74.116c-5.991-17.214-0.969-34,0-56.952L1915.57,17.162z"/>
<path fill="#D0D5F2" d="M1942.614,0.162c0,0,0.488-100.708,0.488,63.458c-303.051,190.163-461.084,235.996-986.56,36.688
	C669.365-35.897,67.363,245.185,0.983,57.116c-6.076-17.214-0.983-34,0-56.952L1942.614,0.162z"/>
<image overflow="visible" enable-background="new    " width="800" height="275" xlink:href="ctaback.jpg"  transform="matrix(1 0 0 1 682.0186 -527.2747)">
</image>
</svg>
