<svg xmlns="http://www.w3.org/2000/svg" width="1920.297" height="1054.1" viewBox="0 0 1920.297 1054.1"><defs><style>.a{fill:#557cf2;}.b{fill:#f26b7a;}</style></defs><g transform="translate(0 -1104.484)"><path class="a" d="M912.565-123.2c-3.186-.057-6.376-.1-9.577-.1-291.8,0-528.35,236.55-528.35,528.35,0,2.3,2.185,35.549,2.185,50.03,0,136.7-110.814,247.512-247.512,247.512-91.231,0-145.658-24.35-229.235-112.526C-200.082,484.41-322.337,402.458-479.383,402.458c-291.8,0-528.349,236.55-528.349,528.349h1920.3Z" transform="translate(1007.732 1227.777)"/><g transform="translate(939.298 1649.206)"><path class="b" d="M163.131,67.488a92.965,92.965,0,0,1-91.425,58.246C29.311,123.523-6.448,91.819-14.558,50.162a85.727,85.727,0,0,1-1.474-13.64A26.025,26.025,0,0,0-37.414,11.454L-81.652,3.712C-99.347.394-116.3,14.034-116.3,32.1v.737c0,106.539,86.632,193.172,193.172,193.172A193.121,193.121,0,0,0,258.61,98.086c6.267-16.958-5.161-35.39-22.856-38.339L191.516,52A25.8,25.8,0,0,0,163.131,67.488Z" transform="translate(116.305 -3.213)"/></g></g></svg>