<?xml version="1.0" encoding="utf-8"?>
<!-- Generator: Adobe Illustrator 15.1.0, SVG Export Plug-In . SVG Version: 6.00 Build 0)  -->
<!DOCTYPE svg PUBLIC "-//W3C//DTD SVG 1.1//EN" "http://www.w3.org/Graphics/SVG/1.1/DTD/svg11.dtd">
<svg version="1.1" id="Layer_1" xmlns="http://www.w3.org/2000/svg" xmlns:xlink="http://www.w3.org/1999/xlink" x="0px" y="0px"
	 width="1920px" height="850.394px" viewBox="0 -346.927 1920 850.394" enable-background="new 0 -346.927 1920 850.394"
	 xml:space="preserve">
<circle opacity="0.5" fill="#D0D5F2" cx="1536.824" cy="232.551" r="204.651"/>
<path fill-rule="evenodd" clip-rule="evenodd" fill="#FFFFFF" d="M1588.669,162.755c20.619,15.186,30.025,36.394,33.629,55.215
	c3.772,19.712,0.476,42.629-14.119,64.13c-14.55,21.436-35.341,31.543-54.551,35.942c-19.661,4.503-41.313,0.72-63.805-12.407
	c-1.698-1.152-3.397-2.307-5.096-3.459c-20.469-15.48-29.754-34.964-33.385-53.933c-3.648-19.071-1.484-40.573,12.398-62.693
	c1.096-1.613,2.191-3.228,3.287-4.843c15.514-20.91,33.585-28.461,52.139-33.483c1.46-0.094,2.886-0.366,4.277-0.818
	c18.817-2.495,38.561-0.142,60.382,13.063C1585.439,160.563,1587.054,161.659,1588.669,162.755z M1600.077,218.896
	c-3.632-13.14-9.96-27.999-25.648-39.002c-15.418-10.813-32.304-13.374-46.125-11.575c-2.031,0.203-4.026,0.584-5.99,1.145
	c-13.397,3.771-26.451,9.338-37.628,24.72c-0.606-0.012-1.964,1.988-1.73,2.55c-10.329,16.169-12.059,30.691-10.537,44.596
	c0.148,1.745,0.477,3.456,0.981,5.134c4.25,15.4,12.193,32.375,33.305,43.08c-7.039-7.968-11.113-16.501-13.288-25.399
	c-0.203-2.031-0.585-4.027-1.146-5.989c-1.18-10.568-0.595-21.473,7.288-33.773c0.69-1.018,1.384-2.038,2.075-3.058
	c7.982-10.817,17.239-14.98,26.719-17.977c1.891-0.176,3.742-0.529,5.563-1.063c8.831-0.975,20.695,0.372,30.604,8.114
	c7.836,6.123,11.913,14.041,13.834,21.303c0.121,1.604,0.422,3.173,0.899,4.707c0.631,6.681,0.517,13.503-4.362,21.237
	c-0.75,1.104-1.499,2.209-2.25,3.314c-9.423,11.395-24.009,16.288-36.561,9.436c-11.789-6.439-15.362-17.527-12.93-27.022
	c2.676-10.448,12.177-15.727,19.946-15.127c10.478,0.812,17.355,11.819,13.335,19.848c-2.047,4.083-5.627,6.171-8.167,5.997
	c8.688-3.14,9.13-14.523,1.613-19.38c-6.432-4.155-18.604-0.37-19.991,10.257c-0.86,6.581,3.711,14.867,11.559,17.524
	c10.241,3.471,23.499-4.228,25.346-17.046c2.281-15.846-14.083-31.047-29.583-28.271c-1.46,0.094-2.886,0.369-4.278,0.82
	c-6.271,1.994-12.346,5.018-17.698,11.813c-0.893,0.403-2.55,2.846-2.595,3.822c-11.018,19.51-1.096,43.359,17.917,54.232
	c21.111,12.072,41.811,3.689,56.943-15.334c1.465-1.244,3.708-4.55,4.324-6.371c9.038-15.331,10.681-29.246,9.155-42.556
	C1600.854,221.999,1600.557,220.43,1600.077,218.896z"/>
<path opacity="0.4" fill="#D0D5F2" d="M1302.36,231.483c0-124.815,101.185-226,226-226c33.43,0,65.158,7.265,93.707,20.291
	l13.771-16.738c-32.494-15.729-68.955-24.553-107.479-24.553c-136.415,0-247,110.586-247,247c0,55.643,18.404,106.983,49.45,148.28
	l13.769-16.734C1318.009,325.975,1302.36,280.559,1302.36,231.483z"/>
<path opacity="0.3" fill="#D0D5F2" d="M1258.024,230.782c0-153.183,124.182-277.364,277.365-277.364
	c41.027,0,79.968,8.916,115.005,24.902l16.901-20.542c-39.879-19.305-84.627-30.133-131.906-30.133
	c-167.419,0-303.138,135.719-303.138,303.137c0,68.29,22.587,131.299,60.689,181.981l16.897-20.538
	C1277.229,346.75,1258.024,291.012,1258.024,230.782z"/>
<path opacity="0.2" fill="#D0D5F2" d="M1204.563,232.514c0-181.204,146.898-328.101,328.103-328.101
	c48.533,0,94.597,10.546,136.043,29.458l19.993-24.3c-47.174-22.836-100.107-35.646-156.036-35.646
	c-198.044,0-358.591,160.546-358.591,358.589c0,80.782,26.72,155.317,71.792,215.271l19.989-24.295
	C1227.282,369.696,1204.563,303.761,1204.563,232.514z"/>
<path opacity="0.1" fill="#D0D5F2" d="M1153.261,228.923c0-210.886,170.96-381.845,381.846-381.845
	c56.483,0,110.092,12.274,158.328,34.283l23.268-28.281c-54.901-26.577-116.505-41.484-181.596-41.484
	c-230.483,0-417.328,186.844-417.328,417.328c0,94.015,31.096,180.759,83.551,250.533l23.264-28.274
	C1179.7,388.576,1153.261,311.84,1153.261,228.923z"/>
</svg>
